<?xml version="1.0" encoding="UTF-8" standalone="no"?>
<!DOCTYPE svg PUBLIC "-//W3C//DTD SVG 1.1//EN" "http://www.w3.org/Graphics/SVG/1.1/DTD/svg11.dtd">
<svg xmlns="http://www.w3.org/2000/svg" version="1.1" viewBox="0.00 0.00 512.00 512.00">
<path fill="#ffffff" d="
  M 256.43 232.89
  Q 291.19 198.32 325.89 163.43
  Q 331.68 157.61 335.30 156.02
  C 348.39 150.28 361.82 164.19 355.82 177.20
  Q 354.43 180.20 349.67 184.97
  Q 310.48 224.13 271.32 263.31
  Q 265.22 269.42 261.64 270.87
  C 253.35 274.22 247.58 270.21 241.40 264.03
  Q 200.42 223.04 159.44 182.06
  C 150.44 173.07 155.05 157.27 167.73 154.96
  C 174.92 153.64 179.33 156.71 184.63 162.01
  Q 220.05 197.42 255.51 232.89
  A 0.65 0.65 0.0 0 0 256.43 232.89
  Z"
/>
<path fill="#ffffff" d="
  M 256.12 318.50
  Q 291.94 282.69 327.69 246.94
  C 329.30 245.32 331.87 242.92 334.11 241.77
  C 347.00 235.09 361.61 248.32 356.21 261.84
  Q 355.00 264.87 350.63 269.24
  Q 310.20 309.68 269.77 350.11
  C 260.15 359.73 251.86 359.74 242.24 350.11
  Q 202.18 310.05 162.12 269.99
  C 155.99 263.86 152.74 258.47 155.77 250.27
  C 159.86 239.16 174.15 236.83 182.29 244.95
  Q 219.14 281.73 255.87 318.50
  A 0.18 0.17 43.9 0 0 256.12 318.50
  Z"
/>
</svg>
